<?xml version="1.0" encoding="UTF-8" standalone="no"?>
<svg
   xmlns:dc="http://purl.org/dc/elements/1.1/"
   xmlns:cc="http://creativecommons.org/ns#"
   xmlns:rdf="http://www.w3.org/1999/02/22-rdf-syntax-ns#"
   xmlns:svg="http://www.w3.org/2000/svg"
   xmlns="http://www.w3.org/2000/svg"
   xmlns:sodipodi="http://sodipodi.sourceforge.net/DTD/sodipodi-0.dtd"
   xmlns:inkscape="http://www.inkscape.org/namespaces/inkscape"
   width="1024"
   height="900"
   version="1.1"
   id="svg4669"
   sodipodi:docname="trianglify (4).svg"
   inkscape:version="0.92.4 (33fec40, 2019-01-16)">
  <metadata
     id="metadata4675">
    <rdf:RDF>
      <cc:Work
         rdf:about="">
        <dc:format>image/svg+xml</dc:format>
        <dc:type
           rdf:resource="http://purl.org/dc/dcmitype/StillImage" />
      </cc:Work>
    </rdf:RDF>
  </metadata>
  <defs
     id="defs4673" />
  <sodipodi:namedview
     pagecolor="#ffffff"
     bordercolor="#666666"
     borderopacity="1"
     objecttolerance="10"
     gridtolerance="10"
     guidetolerance="10"
     inkscape:pageopacity="0"
     inkscape:pageshadow="2"
     inkscape:window-width="1875"
     inkscape:window-height="1025"
     id="namedview4671"
     showgrid="false"
     inkscape:zoom="0.26222222"
     inkscape:cx="512"
     inkscape:cy="450"
     inkscape:window-x="45"
     inkscape:window-y="27"
     inkscape:window-maximized="1"
     inkscape:current-layer="svg4669" />
  <path
     d="m 704.25598,562.3653 226,103 -67,-149 z"
     id="path4469"
     inkscape:connector-curvature="0"
     style="fill:#c1e8e1;stroke:#c1e8e1;stroke-width:1.50999999" />
  <path
     d="m 704.25598,562.3653 101,260 125,-157 z"
     id="path4471"
     inkscape:connector-curvature="0"
     style="fill:#d3efeb;stroke:#d3efeb;stroke-width:1.50999999" />
  <path
     d="m 704.25598,562.3653 -7,256 108,4 z"
     id="path4473"
     inkscape:connector-curvature="0"
     style="fill:#ceede8;stroke:#ceede8;stroke-width:1.50999999" />
  <path
     d="m 930.25598,665.3653 198.00002,-168 -265.00002,19 z"
     id="path4475"
     inkscape:connector-curvature="0"
     style="fill:#c8eae3;stroke:#c8eae3;stroke-width:1.50999999" />
  <path
     d="m 805.25598,822.3653 267.00002,24 -142.00002,-181 z"
     id="path4477"
     inkscape:connector-curvature="0"
     style="fill:#e9f6fa;stroke:#e9f6fa;stroke-width:1.50999999" />
  <path
     d="m 937.25598,1253.3653 135.00002,-407 -267.00002,-24 z"
     id="path4479"
     inkscape:connector-curvature="0"
     style="fill:#f1f9fb;stroke:#f1f9fb;stroke-width:1.50999999" />
  <path
     d="m 1164.256,814.3653 -36,-317 -198.00002,168 z"
     id="path4481"
     inkscape:connector-curvature="0"
     style="fill:#e1f4f1;stroke:#e1f4f1;stroke-width:1.50999999" />
  <path
     d="m 863.25598,516.3653 -113,-380 -46,426 z"
     id="path4483"
     inkscape:connector-curvature="0"
     style="fill:#97d5be;stroke:#97d5be;stroke-width:1.50999999" />
  <path
     d="m 1128.256,497.3653 -172.00002,-209 -93,228 z"
     id="path4485"
     inkscape:connector-curvature="0"
     style="fill:#aedecf;stroke:#aedecf;stroke-width:1.50999999" />
  <path
     d="m 414.25598,771.3653 93,95 190,-48 z"
     id="path4487"
     inkscape:connector-curvature="0"
     style="fill:#b1e0d3;stroke:#b1e0d3;stroke-width:1.50999999" />
  <path
     d="m 697.25598,818.3653 -51,207 159,-203 z"
     id="path4489"
     inkscape:connector-curvature="0"
     style="fill:#d8f0eb;stroke:#d8f0eb;stroke-width:1.50999999" />
  <path
     d="m 1072.256,846.3653 92,-32 -234.00002,-149 z"
     id="path4491"
     inkscape:connector-curvature="0"
     style="fill:#eef9fb;stroke:#eef9fb;stroke-width:1.50999999" />
  <path
     d="m 266.25598,351.3653 148,420 290,-209 z"
     id="path4493"
     inkscape:connector-curvature="0"
     style="fill:#7dcaaf;stroke:#7dcaaf;stroke-width:1.50999999" />
  <path
     d="m 704.25598,562.3653 -290,209 283,47 z"
     id="path4495"
     inkscape:connector-curvature="0"
     style="fill:#b3e2d7;stroke:#b3e2d7;stroke-width:1.50999999" />
  <path
     d="m 623.25598,1129.3653 23,-104 -139,-159 z"
     id="path4497"
     inkscape:connector-curvature="0"
     style="fill:#c0e6dc;stroke:#c0e6dc;stroke-width:1.50999999" />
  <path
     d="m 507.25598,866.3653 139,159 51,-207 z"
     id="path4499"
     inkscape:connector-curvature="0"
     style="fill:#c4e8df;stroke:#c4e8df;stroke-width:1.50999999" />
  <path
     d="m 1231.256,1210.3653 170,-334 -237,-62 z"
     id="path4501"
     inkscape:connector-curvature="0"
     style="fill:#f7fcfd;stroke:#f7fcfd;stroke-width:1.50999999" />
  <path
     d="m 1164.256,814.3653 131,-119 -167,-198 z"
     id="path4503"
     inkscape:connector-curvature="0"
     style="fill:#e3f5f2;stroke:#e3f5f2;stroke-width:1.50999999" />
  <path
     d="m 1128.256,497.3653 88,-220 -260.00002,11 z"
     id="path4505"
     inkscape:connector-curvature="0"
     style="fill:#a6d9be;stroke:#a6d9be;stroke-width:1.50999999" />
  <path
     d="m 956.25598,288.3653 -206,-152 113,380 z"
     id="path4507"
     inkscape:connector-curvature="0"
     style="fill:#93cfb1;stroke:#93cfb1;stroke-width:1.50999999" />
  <path
     d="m 646.25598,1025.3653 291,228 -132,-431 z"
     id="path4509"
     inkscape:connector-curvature="0"
     style="fill:#e5f5f3;stroke:#e5f5f3;stroke-width:1.50999999" />
  <path
     d="m 391.25598,1287.3653 232,-158 -116,-263 z"
     id="path4511"
     inkscape:connector-curvature="0"
     style="fill:#b1dfcf;stroke:#b1dfcf;stroke-width:1.50999999" />
  <path
     d="m 1367.256,425.3653 -151,-148 -88,220 z"
     id="path4513"
     inkscape:connector-curvature="0"
     style="fill:#acdcc8;stroke:#acdcc8;stroke-width:1.50999999" />
  <path
     d="m 956.25598,288.3653 -54,-352 -152,200 z"
     id="path4515"
     inkscape:connector-curvature="0"
     style="fill:#7fb28f;stroke:#7fb28f;stroke-width:1.50999999" />
  <path
     d="m 750.25598,136.3653 -289,16 243,410 z"
     id="path4517"
     inkscape:connector-curvature="0"
     style="fill:#6cbd96;stroke:#6cbd96;stroke-width:1.50999999" />
  <path
     d="m 1295.256,695.3653 72,-270 -239,72 z"
     id="path4519"
     inkscape:connector-curvature="0"
     style="fill:#c7e9e1;stroke:#c7e9e1;stroke-width:1.50999999" />
  <path
     d="m 461.25598,152.3653 -195,199 438,211 z"
     id="path4521"
     inkscape:connector-curvature="0"
     style="fill:#55b98d;stroke:#55b98d;stroke-width:1.50999999" />
  <path
     d="m 623.25598,1129.3653 314,124 -291,-228 z"
     id="path4523"
     inkscape:connector-curvature="0"
     style="fill:#dcf2ee;stroke:#dcf2ee;stroke-width:1.50999999" />
  <path
     d="m 1164.256,814.3653 237,62 -106,-181 z"
     id="path4525"
     inkscape:connector-curvature="0"
     style="fill:#f0f9fc;stroke:#f0f9fc;stroke-width:1.50999999" />
  <path
     d="m 1295.256,695.3653 106,181 -34,-451 z"
     id="path4527"
     inkscape:connector-curvature="0"
     style="fill:#e2f4f2;stroke:#e2f4f2;stroke-width:1.50999999" />
  <path
     d="m 1231.256,1210.3653 -67,-396 -92,32 z"
     id="path4529"
     inkscape:connector-curvature="0"
     style="fill:#f7fcfd;stroke:#f7fcfd;stroke-width:1.50999999" />
  <path
     d="m 201.25598,198.3653 -97,201 162,-48 z"
     id="path4531"
     inkscape:connector-curvature="0"
     style="fill:#2c9455;stroke:#2c9455;stroke-width:1.50999999" />
  <path
     d="m 750.25598,136.3653 -203,-99 -86,115 z"
     id="path4533"
     inkscape:connector-curvature="0"
     style="fill:#4f9f72;stroke:#4f9f72;stroke-width:1.50999999" />
  <path
     d="m 902.25598,-63.6347 -355,101 203,99 z"
     id="path4535"
     inkscape:connector-curvature="0"
     style="fill:#669c7b;stroke:#669c7b;stroke-width:1.50999999" />
  <path
     d="m 414.25598,771.3653 -253,71 346,24 z"
     id="path4537"
     inkscape:connector-curvature="0"
     style="fill:#9bd0b2;stroke:#9bd0b2;stroke-width:1.50999999" />
  <path
     d="m 10.255979,629.3653 151.000001,213 253,-71 z"
     id="path4539"
     inkscape:connector-curvature="0"
     style="fill:#82b793;stroke:#82b793;stroke-width:1.50999999" />
  <path
     d="m 1096.256,-140.6347 -194.00002,77 54,352 z"
     id="path4541"
     inkscape:connector-curvature="0"
     style="fill:#7fa488;stroke:#7fa488;stroke-width:1.50999999" />
  <path
     d="m 1096.256,-140.6347 -140.00002,429 260.00002,-11 z"
     id="path4543"
     inkscape:connector-curvature="0"
     style="fill:#8dba95;stroke:#8dba95;stroke-width:1.50999999" />
  <path
     d="m 937.25598,1253.3653 294.00002,-43 -159,-364 z"
     id="path4545"
     inkscape:connector-curvature="0"
     style="fill:#f7fcfd;stroke:#f7fcfd;stroke-width:1.50999999" />
  <path
     d="m 266.25598,351.3653 -256.000001,278 404.000001,142 z"
     id="path4547"
     inkscape:connector-curvature="0"
     style="fill:#6ab187;stroke:#6ab187;stroke-width:1.50999999" />
  <path
     d="m 201.25598,198.3653 65,153 195,-199 z"
     id="path4549"
     inkscape:connector-curvature="0"
     style="fill:#2e9654;stroke:#2e9654;stroke-width:1.50999999" />
  <path
     d="m 234.25598,6.3653003 -33,191.9999997 260,-46 z"
     id="path4551"
     inkscape:connector-curvature="0"
     style="fill:#1e8543;stroke:#1e8543;stroke-width:1.50999999" />
  <path
     d="m 1367.256,425.3653 87,-226 -238,78 z"
     id="path4553"
     inkscape:connector-curvature="0"
     style="fill:#9fd2b2;stroke:#9fd2b2;stroke-width:1.50999999" />
  <path
     d="m 1401.256,876.3653 53,-677 -87,226 z"
     id="path4555"
     inkscape:connector-curvature="0"
     style="fill:#bfe6db;stroke:#bfe6db;stroke-width:1.50999999" />
  <path
     d="m 623.25598,1129.3653 -232,158 546,-34 z"
     id="path4557"
     inkscape:connector-curvature="0"
     style="fill:#cbebe4;stroke:#cbebe4;stroke-width:1.50999999" />
  <path
     d="m 161.25598,842.3653 230,445 116,-421 z"
     id="path4559"
     inkscape:connector-curvature="0"
     style="fill:#9fd1b1;stroke:#9fd1b1;stroke-width:1.50999999" />
  <path
     d="m 104.25598,399.3653 -94.000001,230 256.000001,-278 z"
     id="path4561"
     inkscape:connector-curvature="0"
     style="fill:#43996a;stroke:#43996a;stroke-width:1.50999999" />
  <path
     d="m 161.25598,842.3653 -144.000001,393 374.000001,52 z"
     id="path4563"
     inkscape:connector-curvature="0"
     style="fill:#8ebb96;stroke:#8ebb96;stroke-width:1.50999999" />
  <path
     d="m 1401.256,876.3653 9,287 44,-964 z"
     id="path4565"
     inkscape:connector-curvature="0"
     style="fill:#ebf8f9;stroke:#ebf8f9;stroke-width:1.50999999" />
  <path
     d="m 1231.256,1210.3653 179,-47 -9,-287 z"
     id="path4567"
     inkscape:connector-curvature="0"
     style="fill:#f7fcfd;stroke:#f7fcfd;stroke-width:1.50999999" />
  <path
     d="m 382.25598,-307.6347 -118,294 283,51 z"
     id="path4569"
     inkscape:connector-curvature="0"
     style="fill:#247849;stroke:#247849;stroke-width:1.50999999" />
  <path
     d="m 1454.256,199.3653 -358,-340 120,418 z"
     id="path4571"
     inkscape:connector-curvature="0"
     style="fill:#8ab691;stroke:#8ab691;stroke-width:1.50999999" />
  <path
     d="m 547.25598,37.3653 -283,-51 197,166 z"
     id="path4573"
     inkscape:connector-curvature="0"
     style="fill:#2c8854;stroke:#2c8854;stroke-width:1.50999999" />
  <path
     d="m 201.25598,198.3653 -217.000001,143 120.000001,58 z"
     id="path4575"
     inkscape:connector-curvature="0"
     style="fill:#24864c;stroke:#24864c;stroke-width:1.50999999" />
  <path
     d="m 104.25598,399.3653 -120.000001,-58 26,288 z"
     id="path4577"
     inkscape:connector-curvature="0"
     style="fill:#3c8862;stroke:#3c8862;stroke-width:1.50999999" />
  <path
     d="m 559.25598,-294.6347 -12,332 355,-101 z"
     id="path4579"
     inkscape:connector-curvature="0"
     style="fill:#558d70;stroke:#558d70;stroke-width:1.50999999" />
  <path
     d="m 264.25598,-13.6347 -30,20.0000003 227,145.9999997 z"
     id="path4581"
     inkscape:connector-curvature="0"
     style="fill:#1c7b40;stroke:#1c7b40;stroke-width:1.50999999" />
  <path
     d="m -170.74402,12.3653 154.999999,329 217.000001,-143 z"
     id="path4583"
     inkscape:connector-curvature="0"
     style="fill:#0d642d;stroke:#0d642d;stroke-width:1.50999999" />
  <path
     d="m -262.74402,613.3653 154,87 118.999999,-71 z"
     id="path4585"
     inkscape:connector-curvature="0"
     style="fill:#659378;stroke:#659378;stroke-width:1.50999999" />
  <path
     d="m 10.255979,629.3653 -118.999999,71 270,142 z"
     id="path4587"
     inkscape:connector-curvature="0"
     style="fill:#719b81;stroke:#719b81;stroke-width:1.50999999" />
  <path
     d="m 1003.256,-401.6347 -444.00002,107 343,231 z"
     id="path4589"
     inkscape:connector-curvature="0"
     style="fill:#6e967d;stroke:#6e967d;stroke-width:1.50999999" />
  <path
     d="m 264.25598,-13.6347 -161,-283 131,303.0000003 z"
     id="path4591"
     inkscape:connector-curvature="0"
     style="fill:#09602a;stroke:#09602a;stroke-width:1.50999999" />
  <path
     d="m 1096.256,-140.6347 -93,-261 -101.00002,338 z"
     id="path4593"
     inkscape:connector-curvature="0"
     style="fill:#7c9c83;stroke:#7c9c83;stroke-width:1.50999999" />
  <path
     d="m 1454.256,199.3653 -223,-436 -135,96 z"
     id="path4595"
     inkscape:connector-curvature="0"
     style="fill:#7d9c84;stroke:#7d9c84;stroke-width:1.50999999" />
  <path
     d="m -133.74402,1076.3653 150.999999,159 144.000001,-393 z"
     id="path4597"
     inkscape:connector-curvature="0"
     style="fill:#7e9f85;stroke:#7e9f85;stroke-width:1.50999999" />
  <path
     d="m 559.25598,-294.6347 -177,-13 165,345 z"
     id="path4599"
     inkscape:connector-curvature="0"
     style="fill:#337f59;stroke:#337f59;stroke-width:1.50999999" />
  <path
     d="m 234.25598,6.3653003 -405,5.9999997 372,186 z"
     id="path4601"
     inkscape:connector-curvature="0"
     style="fill:#006127;stroke:#006127;stroke-width:1.50999999" />
  <path
     d="m -187.74402,937.3653 54,139 295,-234 z"
     id="path4603"
     inkscape:connector-curvature="0"
     style="fill:#7d9c84;stroke:#7d9c84;stroke-width:1.50999999" />
  <path
     d="m -108.74402,700.3653 -79,237 349,-95 z"
     id="path4605"
     inkscape:connector-curvature="0"
     style="fill:#799a83;stroke:#799a83;stroke-width:1.50999999" />
  <path
     d="m -262.74402,613.3653 75,324 79,-237 z"
     id="path4607"
     inkscape:connector-curvature="0"
     style="fill:#729880;stroke:#729880;stroke-width:1.50999999" />
  <path
     d="m 1231.256,-236.6347 -228,-165 93,261 z"
     id="path4609"
     inkscape:connector-curvature="0"
     style="fill:#7d9c84;stroke:#7d9c84;stroke-width:1.50999999" />
  <path
     d="m 559.25598,-294.6347 444.00002,-107 -621.00002,94 z"
     id="path4611"
     inkscape:connector-curvature="0"
     style="fill:#518b6e;stroke:#518b6e;stroke-width:1.50999999" />
  <path
     d="m 1231.256,-236.6347 154,-117 -382,-48 z"
     id="path4613"
     inkscape:connector-curvature="0"
     style="fill:#7d9c84;stroke:#7d9c84;stroke-width:1.50999999" />
  <path
     d="m 1454.256,199.3653 53,-376 -276,-60 z"
     id="path4615"
     inkscape:connector-curvature="0"
     style="fill:#7d9c84;stroke:#7d9c84;stroke-width:1.50999999" />
  <path
     d="m 1410.256,1163.3653 97,-1340 -53,376 z"
     id="path4617"
     inkscape:connector-curvature="0"
     style="fill:#acdcc7;stroke:#acdcc7;stroke-width:1.50999999" />
  <path
     d="m -15.744021,341.3653 -246.999999,272 272.999999,16 z"
     id="path4619"
     inkscape:connector-curvature="0"
     style="fill:#4b8969;stroke:#4b8969;stroke-width:1.50999999" />
  <path
     d="m -255.74402,173.3653 -7,440 246.999999,-272 z"
     id="path4621"
     inkscape:connector-curvature="0"
     style="fill:#2c7b51;stroke:#2c7b51;stroke-width:1.50999999" />
  <path
     d="m 1507.256,-176.6347 -122,-177 -154,117 z"
     id="path4623"
     inkscape:connector-curvature="0"
     style="fill:#7d9c84;stroke:#7d9c84;stroke-width:1.50999999" />
  <path
     d="m 103.25598,-296.6347 -274,309 405,-5.9999997 z"
     id="path4625"
     inkscape:connector-curvature="0"
     style="fill:#004d1e;stroke:#004d1e;stroke-width:1.50999999" />
  <path
     d="m -170.74402,12.3653 -85,161 239.999999,168 z"
     id="path4627"
     inkscape:connector-curvature="0"
     style="fill:#0b622b;stroke:#0b622b;stroke-width:1.50999999" />
  <path
     d="m 382.25598,-307.6347 -279,11 161,283 z"
     id="path4629"
     inkscape:connector-curvature="0"
     style="fill:#10662f;stroke:#10662f;stroke-width:1.50999999" />
  <path
     d="m -484.74402,-352.6347 588,56 279,-11 z"
     id="path4631"
     inkscape:connector-curvature="0"
     style="fill:#00441b;stroke:#00441b;stroke-width:1.50999999" />
  <path
     d="m -430.74402,224.3653 -29,280 204,-331 z"
     id="path4633"
     inkscape:connector-curvature="0"
     style="fill:#1e7442;stroke:#1e7442;stroke-width:1.50999999" />
  <path
     d="m -255.74402,173.3653 -204,331 197,109 z"
     id="path4635"
     inkscape:connector-curvature="0"
     style="fill:#35805b;stroke:#35805b;stroke-width:1.50999999" />
  <path
     d="m -262.74402,613.3653 -184,352 259,-28 z"
     id="path4637"
     inkscape:connector-curvature="0"
     style="fill:#7a9b83;stroke:#7a9b83;stroke-width:1.50999999" />
  <path
     d="m -187.74402,937.3653 -187,246 241,-107 z"
     id="path4639"
     inkscape:connector-curvature="0"
     style="fill:#7d9c84;stroke:#7d9c84;stroke-width:1.50999999" />
  <path
     d="m -459.74402,504.3653 13,461 184,-352 z"
     id="path4641"
     inkscape:connector-curvature="0"
     style="fill:#6c967c;stroke:#6c967c;stroke-width:1.50999999" />
  <path
     d="m -133.74402,1076.3653 -241,107 391.999999,52 z"
     id="path4643"
     inkscape:connector-curvature="0"
     style="fill:#7d9c84;stroke:#7d9c84;stroke-width:1.50999999" />
  <path
     d="m -297.74402,-148.6347 42,322 85,-161 z"
     id="path4645"
     inkscape:connector-curvature="0"
     style="fill:#00491d;stroke:#00491d;stroke-width:1.50999999" />
  <path
     d="m -297.74402,-148.6347 -133,373 175,-51 z"
     id="path4647"
     inkscape:connector-curvature="0"
     style="fill:#005522;stroke:#005522;stroke-width:1.50999999" />
  <path
     d="m -446.74402,965.3653 72,218 187,-246 z"
     id="path4649"
     inkscape:connector-curvature="0"
     style="fill:#7d9c84;stroke:#7d9c84;stroke-width:1.50999999" />
  <path
     d="m 17.255979,1235.3653 -391.999999,-52 766,104 z"
     id="path4651"
     inkscape:connector-curvature="0"
     style="fill:#7e9e85;stroke:#7e9e85;stroke-width:1.50999999" />
  <path
     d="m 103.25598,-296.6347 -310,91 36,218 z"
     id="path4653"
     inkscape:connector-curvature="0"
     style="fill:#00441b;stroke:#00441b;stroke-width:1.50999999" />
  <path
     d="m -206.74402,-205.6347 -91,57 127,161 z"
     id="path4655"
     inkscape:connector-curvature="0"
     style="fill:#00441b;stroke:#00441b;stroke-width:1.50999999" />
  <path
     d="m -206.74402,-205.6347 -278,-147 187,204 z"
     id="path4657"
     inkscape:connector-curvature="0"
     style="fill:#00441b;stroke:#00441b;stroke-width:1.50999999" />
  <path
     d="m -297.74402,-148.6347 -187,-204 54,577 z"
     id="path4659"
     inkscape:connector-curvature="0"
     style="fill:#00441b;stroke:#00441b;stroke-width:1.50999999" />
  <path
     d="m -430.74402,224.3653 -54,-577 25,857 z"
     id="path4661"
     inkscape:connector-curvature="0"
     style="fill:#045b26;stroke:#045b26;stroke-width:1.50999999" />
  <path
     d="m -459.74402,504.3653 -25,-857 38,1318 z"
     id="path4663"
     inkscape:connector-curvature="0"
     style="fill:#2a7b50;stroke:#2a7b50;stroke-width:1.50999999" />
  <path
     d="m 103.25598,-296.6347 -588,-56 278,147 z"
     id="path4665"
     inkscape:connector-curvature="0"
     style="fill:#00441b;stroke:#00441b;stroke-width:1.50999999" />
  <path
     d="m 1003.256,-401.6347 -1488.00002,49 867,45 z"
     id="path4667"
     inkscape:connector-curvature="0"
     style="fill:#176c37;stroke:#176c37;stroke-width:1.50999999" />
</svg>
